HIERARCHY
ROOT hip
{
  OFFSET 0 0 0
  CHANNELS 6 Xposition Yposition Zposition Zrotation Yrotation Xrotation
  JOINT abdomen
  {
    OFFSET 0 20.6881 -0.73152
    CHANNELS 3 Zrotation Xrotation Yrotation
    JOINT chest
    {
      OFFSET 0 11.7043 -0.48768
      CHANNELS 3 Zrotation Xrotation Yrotation
      JOINT neck
      {
        OFFSET 0 22.1894 -2.19456
        CHANNELS 3 Zrotation Xrotation Yrotation
        JOINT head
        {
          OFFSET -0.24384 7.07133 1.2192
          CHANNELS 3 Zrotation Xrotation Yrotation
          JOINT leftEye
          {
            OFFSET 4.14528 8.04674 8.04672
            CHANNELS 3 Zrotation Xrotation Yrotation
            End Site
            {
              OFFSET 1 0 0
            }
          }
          JOINT rightEye
          {
            OFFSET -3.6576 8.04674 8.04672
            CHANNELS 3 Zrotation Xrotation Yrotation
            End Site
            {
              OFFSET 1 0 0
            }
          }
        }
      }
      JOINT rCollar
      {
        OFFSET -2.68224 19.2634 -4.8768
        CHANNELS 3 Zrotation Xrotation Yrotation
        JOINT rShldr
        {
          OFFSET -8.77824 -1.95073 1.46304
          CHANNELS 3 Zrotation Xrotation Yrotation
          JOINT rForeArm
          {
            OFFSET -28.1742 -1.7115 0.48768
            CHANNELS 3 Zrotation Xrotation Yrotation
            JOINT rHand
            {
              OFFSET -22.5879 0.773209 7.07136
              CHANNELS 3 Zrotation Xrotation Yrotation
              JOINT rThumb1
              {
                OFFSET -1.2192 -0.487915 3.41376
                CHANNELS 3 Zrotation Xrotation Yrotation
                JOINT rThumb2
                {
                  OFFSET -3.37035 -0.52449 3.41376
                  CHANNELS 3 Zrotation Xrotation Yrotation
                  End Site
                  {
                    OFFSET -1.78271 -1.18214 1.43049
                  }
                }
              }
              JOINT rIndex1
              {
                OFFSET -7.75947 0.938293 5.60832
                CHANNELS 3 Zrotation Xrotation Yrotation
                JOINT rIndex2
                {
                  OFFSET -2.54057 -0.884171 1.56538
                  CHANNELS 3 Zrotation Xrotation Yrotation
                  End Site
                  {
                    OFFSET -1.62519 -0.234802 1.16502
                  }
                }
              }
              JOINT rMid1
              {
                OFFSET -8.24714 1.18213 3.41376
                CHANNELS 3 Zrotation Xrotation Yrotation
                JOINT rMid2
                {
                  OFFSET -3.10165 -0.590103 1.0647
                  CHANNELS 3 Zrotation Xrotation Yrotation
                  End Site
                  {
                    OFFSET -2.48547 -0.328903 0.83742
                  }
                }
              }
              JOINT rRing1
              {
                OFFSET -8.82822 0.546677 1.51678
                CHANNELS 3 Zrotation Xrotation Yrotation
                JOINT rRing2
                {
                  OFFSET -2.60934 -0.819778 -0.0198488
                  CHANNELS 3 Zrotation Xrotation Yrotation
                  End Site
                  {
                    OFFSET -2.33842 -0.294052 0.168128
                  }
                }
              }
              JOINT rPinky1
              {
                OFFSET -8.27202 -0.0477905 -0.4584
                CHANNELS 3 Zrotation Xrotation Yrotation
                JOINT rPinky2
                {
                  OFFSET -1.82734 -0.647385 -0.700984
                  CHANNELS 3 Zrotation Xrotation Yrotation
                  End Site
                  {
                    OFFSET -1.69225 -0.51767 -0.607171
                  }
                }
              }
            }
          }
        }
      }
      JOINT lCollar
      {
        OFFSET 2.68224 19.2634 -4.8768
        CHANNELS 3 Zrotation Xrotation Yrotation
        JOINT lShldr
        {
          OFFSET 8.77824 -1.95073 1.46304
          CHANNELS 3 Zrotation Xrotation Yrotation
          JOINT lForeArm
          {
            OFFSET 28.1742 -1.7115 0.48768
            CHANNELS 3 Zrotation Xrotation Yrotation
            JOINT lHand
            {
              OFFSET 22.5879 0.773209 7.07136
              CHANNELS 3 Zrotation Xrotation Yrotation
              JOINT lThumb1
              {
                OFFSET 1.2192 -0.487915 3.41376
                CHANNELS 3 Zrotation Xrotation Yrotation
                JOINT lThumb2
                {
                  OFFSET 3.37035 -0.52449 3.41376
                  CHANNELS 3 Zrotation Xrotation Yrotation
                  End Site
                  {
                    OFFSET 1.78271 -1.18214 1.43049
                  }
                }
              }
              JOINT lIndex1
              {
                OFFSET 7.75947 0.938293 5.60832
                CHANNELS 3 Zrotation Xrotation Yrotation
                JOINT lIndex2
                {
                  OFFSET 2.54057 -0.884171 1.56538
                  CHANNELS 3 Zrotation Xrotation Yrotation
                  End Site
                  {
                    OFFSET 1.62519 -0.234802 1.16502
                  }
                }
              }
              JOINT lMid1
              {
                OFFSET 8.24714 1.18213 3.41376
                CHANNELS 3 Zrotation Xrotation Yrotation
                JOINT lMid2
                {
                  OFFSET 3.10165 -0.590103 1.0647
                  CHANNELS 3 Zrotation Xrotation Yrotation
                  End Site
                  {
                    OFFSET 2.48547 -0.328903 0.83742
                  }
                }
              }
              JOINT lRing1
              {
                OFFSET 8.82822 0.546677 1.51678
                CHANNELS 3 Zrotation Xrotation Yrotation
                JOINT lRing2
                {
                  OFFSET 2.60934 -0.819778 -0.0198488
                  CHANNELS 3 Zrotation Xrotation Yrotation
                  End Site
                  {
                    OFFSET 2.33842 -0.294052 0.168128
                  }
                }
              }
              JOINT lPinky1
              {
                OFFSET 8.27202 -0.0477905 -0.4584
                CHANNELS 3 Zrotation Xrotation Yrotation
                JOINT lPinky2
                {
                  OFFSET 1.82734 -0.647385 -0.700984
                  CHANNELS 3 Zrotation Xrotation Yrotation
                  End Site
                  {
                    OFFSET 1.69225 -0.51767 -0.607171
                  }
                }
              }
            }
          }
        }
      }
    }
  }
  JOINT rButtock
  {
    OFFSET -8.77824 4.35084 1.2192
    CHANNELS 3 Zrotation Xrotation Yrotation
    JOINT rThigh
    {
      OFFSET 0 -1.70687 -2.19456
      CHANNELS 3 Zrotation Xrotation Yrotation
      JOINT rShin
      {
        OFFSET 0 -36.8199 0.73152
        CHANNELS 3 Zrotation Xrotation Yrotation
        JOINT rFoot
        {
          OFFSET 0.73152 -45.1104 -5.12064
          CHANNELS 3 Zrotation Xrotation Yrotation
          End Site
          {
            OFFSET -1.1221 -3.69964 12.103
          }
        }
      }
    }
  }
  JOINT lButtock
  {
    OFFSET 8.77824 4.35084 1.2192
    CHANNELS 3 Zrotation Xrotation Yrotation
    JOINT lThigh
    {
      OFFSET 0 -1.70687 -2.19456
      CHANNELS 3 Zrotation Xrotation Yrotation
      JOINT lShin
      {
        OFFSET 0 -36.8199 0.73152
        CHANNELS 3 Zrotation Xrotation Yrotation
        JOINT lFoot
        {
          OFFSET -0.73152 -45.1104 -5.12064
          CHANNELS 3 Zrotation Xrotation Yrotation
          End Site
          {
            OFFSET 1.1221 -3.69964 12.103
          }
        }
      }
    }
  }
}
MOTION
Frames:	7
Frame Time:	0.00833333
66.4328 85.3406 86.4825 -20.3203 82.0629 -365.723 4.64806 10.4192 -8.93179 4.04669 -0.408479 -2.34704 -5.16838 13.0861 -17.5193 17.005 -12.8989 -31.4989 -0.0 0.0 0.0 -0.0 0.0 0.0 1.47942e-13 -3.912e-13 2.87244e-14 -30.1438 77.7364 68.295 -26.8201 -25.7547 60.4891 -0.807559 24.641 3.69622 -1.11179e-09 2.43262e-10 3.40716e-09 -1.85926e-09 3.7535e-10 5.89751e-09 -1.11178e-09 2.43262e-10 3.40715e-09 7.73091 5.47488 0.417314 -1.11179e-09 2.43259e-10 3.40716e-09 2.90554 0.965183 0.102902 -1.11179e-09 2.4326e-10 3.40716e-09 10.2786 0.731801 0.0259123 -1.11179e-09 2.43262e-10 3.40717e-09 2.22167 -0.733487 -0.20892 1.4786e-13 -3.91218e-13 2.85256e-14 -66.336 43.1041 -14.2488 23.6585 -18.4727 -48.5468 0.614328 -21.6946 3.20523 -1.33109e-09 5.5688e-10 -3.60613e-09 -2.22433e-09 9.95119e-10 -6.25225e-09 -1.3311e-09 5.56882e-10 -3.60612e-09 -7.73091 5.47488 -0.417314 -1.33109e-09 5.5688e-10 -3.60613e-09 -2.90554 0.965183 -0.102902 -1.3311e-09 5.5688e-10 -3.60613e-09 -10.2786 0.731801 -0.0259123 -1.33109e-09 5.56884e-10 -3.60613e-09 -2.22167 -0.733487 0.20892 -2.03217e-16 0.0 -3.88251e-19 5.42582 -29.4914 16.5574 -0.321034 39.6999 0.708421 2.72709 -4.65813 17.2574 2.03217e-16 0.0 3.88251e-19 11.7461 -50.612 1.15006 0.274285 36.2829 -0.530916 -0.283392 10.825 5.28411
65.4724 85.3075 86.7855 -20.4424 82.4564 -365.761 4.62045 10.7121 -8.77021 3.85395 -0.417647 -2.29787 -5.091 13.1494 -17.5656 17.2531 -13.2836 -31.5392 -0.0 0.0 0.0 -0.0 0.0 0.0 5.47309e-14 -1.40028e-13 3.70551e-14 -36.6291 76.5771 73.6291 -26.9675 -26.2284 61.2424 -0.813639 24.7271 3.71088 -2.42304e-10 4.3659e-10 1.42001e-09 -3.92008e-10 7.39946e-10 2.45402e-09 -2.42296e-10 4.36591e-10 1.42e-09 7.73091 5.47488 0.417314 -2.42304e-10 4.36588e-10 1.42001e-09 2.90554 0.965183 0.102902 -2.42299e-10 4.3659e-10 1.42001e-09 10.2786 0.731801 0.0259123 -2.42305e-10 4.3659e-10 1.42002e-09 2.22167 -0.733487 -0.20892 5.4654e-14 -1.40045e-13 3.68361e-14 -66.2164 43.0836 -14.3168 23.69 -18.5282 -48.6483 0.628025 -21.9167 3.24159 -4.73204e-10 3.54315e-10 -1.4972e-09 -7.87144e-10 6.27217e-10 -2.59378e-09 -4.73209e-10 3.54317e-10 -1.49719e-09 -7.73091 5.47488 -0.417314 -4.73205e-10 3.54317e-10 -1.4972e-09 -2.90554 0.965183 -0.102902 -4.73208e-10 3.54316e-10 -1.4972e-09 -10.2786 0.731801 -0.0259123 -4.73204e-10 3.54319e-10 -1.4972e-09 -2.22167 -0.733487 0.20892 -2.03217e-16 0.0 -3.88251e-19 5.59523 -30.055 16.1958 -0.320282 39.7084 0.711032 2.7673 -5.26367 16.5966 2.03217e-16 0.0 3.88251e-19 11.7559 -51.2666 1.96762 0.295128 37.4457 -0.558437 -0.222613 10.8324 4.93243
64.5307 85.2581 87.1004 -20.8917 82.8642 -366.143 4.6322 10.9894 -8.62617 3.64594 -0.421795 -2.25335 -5.02402 13.2289 -17.6225 17.5055 -13.6467 -31.5976 -0.0 0.0 0.0 -0.0 0.0 0.0 -9.37901e-14 2.77348e-13 3.09328e-14 -41.8353 75.3525 77.6532 -27.1082 -26.7034 61.9916 -0.825215 24.889 3.73854 9.69021e-10 8.93603e-10 -2.02285e-09 1.6402e-09 1.58127e-09 -3.50609e-09 9.69027e-10 8.93605e-10 -2.02286e-09 7.73091 5.47488 0.417314 9.69021e-10 8.93602e-10 -2.02285e-09 2.90554 0.965183 0.102902 9.69024e-10 8.93604e-10 -2.02285e-09 10.2786 0.731801 0.0259123 9.69019e-10 8.93602e-10 -2.02284e-09 2.22167 -0.733487 -0.20892 -9.38687e-14 2.77335e-13 3.06843e-14 -66.0591 43.0659 -14.493 23.6851 -18.5194 -48.6334 0.639505 -22.1017 3.27192 9.83775e-10 -7.2316e-11 2.23642e-09 1.65129e-09 -1.41899e-10 3.88207e-09 9.83768e-10 -7.23153e-11 2.23643e-09 -7.73091 5.47488 -0.417314 9.83774e-10 -7.23127e-11 2.23642e-09 -2.90554 0.965183 -0.102902 9.8377e-10 -7.23125e-11 2.23643e-09 -10.2786 0.731801 -0.0259123 9.83774e-10 -7.2311e-11 2.23642e-09 -2.22167 -0.733487 0.20892 -2.03217e-16 0.0 -3.88251e-19 5.73227 -30.6174 15.7372 -0.319418 39.7348 0.716648 2.7775 -5.7409 16.0396 2.03217e-16 0.0 3.88251e-19 11.8203 -51.9746 2.90647 0.31934 38.7136 -0.589104 -0.162057 10.9056 4.53206
63.6062 85.1991 87.4274 -21.7143 83.2609 -366.923 4.66534 11.2676 -8.47432 3.43868 -0.427002 -2.20591 -4.97333 13.3164 -17.6772 17.7394 -13.9746 -31.6547 -0.0 0.0 0.0 -0.0 0.0 0.0 -2.39924e-13 6.9202e-13 2.21284e-14 -46.1394 74.053 80.7444 -27.236 -27.1582 62.7143 -0.838626 25.0739 3.77023 2.12598e-09 1.36571e-09 -5.47379e-09 3.57828e-09 2.44869e-09 -9.47913e-09 2.12599e-09 1.36572e-09 -5.4738e-09 7.73091 5.47488 0.417314 2.12598e-09 1.36571e-09 -5.47378e-09 2.90554 0.965183 0.102902 2.12598e-09 1.36571e-09 -5.47379e-09 10.2786 0.731801 0.0259123 2.12598e-09 1.36571e-09 -5.47378e-09 2.22167 -0.733487 -0.20892 -2.40008e-13 6.92014e-13 2.18504e-14 -65.9584 42.9994 -14.6799 23.658 -18.4713 -48.5477 0.645081 -22.1925 3.28682 2.42657e-09 -5.09691e-10 5.99561e-09 4.06499e-09 -9.29638e-10 1.04019e-08 2.42656e-09 -5.09691e-10 5.99561e-09 -7.73091 5.47488 -0.417314 2.42657e-09 -5.09686e-10 5.99561e-09 -2.90554 0.965183 -0.102902 2.42656e-09 -5.09685e-10 5.99561e-09 -10.2786 0.731801 -0.0259123 2.42657e-09 -5.09685e-10 5.9956e-09 -2.22167 -0.733487 0.20892 -2.03217e-16 0.0 -3.88251e-19 5.87896 -31.1806 15.2365 -0.318912 39.7874 0.723779 2.77132 -6.07962 15.6236 2.03217e-16 0.0 3.88251e-19 11.9805 -52.6716 3.90075 0.346638 40.0687 -0.623481 -0.100618 11.0015 4.08932
62.6989 85.1328 87.7704 -22.8984 83.6097 -368.097 4.70121 11.5634 -8.28922 3.24825 -0.439346 -2.14797 -4.94495 13.4039 -17.717 17.9325 -14.2541 -31.6905 -0.0 0.0 0.0 -0.0 0.0 0.0 -3.25974e-13 9.35083e-13 2.2413e-14 -49.8037 72.6509 83.1634 -27.3468 -27.5736 63.386 -0.849997 25.2287 3.79688 2.83238e-09 1.60433e-09 -7.48518e-09 4.76313e-09 2.89155e-09 -1.29615e-08 2.83238e-09 1.60433e-09 -7.48519e-09 7.73091 5.47488 0.417314 2.83238e-09 1.60433e-09 -7.48517e-09 2.90554 0.965183 0.102902 2.83238e-09 1.60433e-09 -7.48518e-09 10.2786 0.731801 0.0259123 2.83238e-09 1.60433e-09 -7.48517e-09 2.22167 -0.733487 -0.20892 -3.26061e-13 9.35083e-13 2.21148e-14 -66.0091 42.833 -14.7804 23.6227 -18.4086 -48.4371 0.641056 -22.1325 3.27685 3.24189e-09 -7.44485e-10 8.18123e-09 5.42798e-09 -1.35341e-09 1.41922e-08 3.24189e-09 -7.44486e-10 8.18123e-09 -7.73091 5.47488 -0.417314 3.24189e-09 -7.4448e-10 8.18123e-09 -2.90554 0.965183 -0.102902 3.24189e-09 -7.44479e-10 8.18123e-09 -10.2786 0.731801 -0.0259123 3.24189e-09 -7.4448e-10 8.18122e-09 -2.22167 -0.733487 0.20892 -2.03217e-16 0.0 -3.88251e-19 6.07955 -31.7468 14.7502 -0.319236 39.8742 0.730938 2.76173 -6.26997 15.3861 2.03217e-16 0.0 3.88251e-19 12.2654 -53.2959 4.87477 0.376792 41.4927 -0.662176 -0.0384012 11.0772 3.61074
61.8101 85.0624 88.1315 -24.462 83.8775 -369.695 4.75464 11.8914 -8.06349 3.0788 -0.463961 -2.07635 -4.95119 13.4947 -17.7365 18.0803 -14.4827 -31.694 -0.0 0.0 0.0 -0.0 0.0 0.0 -3.23498e-13 9.19027e-13 3.96001e-14 -53.0479 71.137 85.1067 -27.4441 -27.9546 63.9995 -0.857014 25.3231 3.81318 2.9117e-09 1.47981e-09 -7.39318e-09 4.90141e-09 2.67667e-09 -1.28053e-08 2.9117e-09 1.47982e-09 -7.3932e-09 7.73091 5.47488 0.417314 2.9117e-09 1.47982e-09 -7.39318e-09 2.90554 0.965183 0.102902 2.9117e-09 1.47982e-09 -7.39318e-09 10.2786 0.731801 0.0259123 2.9117e-09 1.47981e-09 -7.39317e-09 2.22167 -0.733487 -0.20892 -3.23592e-13 9.19035e-13 3.92926e-14 -66.2456 42.524 -14.797 23.5726 -18.3199 -48.2823 0.622912 -21.8448 3.22955 3.11389e-09 -6.82577e-10 8.07309e-09 5.2099e-09 -1.2439e-09 1.40035e-08 3.11388e-09 -6.82578e-10 8.07309e-09 -7.73091 5.47488 -0.417314 3.11389e-09 -6.82572e-10 8.07309e-09 -2.90554 0.965183 -0.102902 3.11388e-09 -6.82571e-10 8.07309e-09 -10.2786 0.731801 -0.0259123 3.11389e-09 -6.82572e-10 8.07308e-09 -2.22167 -0.733487 0.20892 -2.03217e-16 0.0 -3.88251e-19 6.34587 -32.3343 14.2547 -0.320845 40.0145 0.73842 2.75435 -6.25964 15.3983 2.03217e-16 0.0 3.88251e-19 12.7003 -53.8422 5.8396 0.41058 42.9915 -0.706346 0.0270083 11.1151 3.06659
60.9408 84.9913 88.5127 -26.25 84.0362 -371.565 4.82784 12.2396 -7.81072 2.92185 -0.496437 -1.99547 -4.98537 13.5912 -17.7432 18.1946 -14.6674 -31.6771 -0.0 0.0 0.0 -0.0 0.0 0.0 -2.6762e-13 7.48092e-13 6.58536e-14 -55.8892 69.5526 86.6033 -27.5322 -28.3139 64.5656 -0.862085 25.3908 3.82488 2.59887e-09 1.14587e-09 -6.06248e-09 4.38384e-09 2.08206e-09 -1.05059e-08 2.59887e-09 1.14588e-09 -6.06249e-09 7.73091 5.47488 0.417314 2.59886e-09 1.14587e-09 -6.06248e-09 2.90554 0.965183 0.102902 2.59887e-09 1.14587e-09 -6.06247e-09 10.2786 0.731801 0.0259123 2.59886e-09 1.14587e-09 -6.06247e-09 2.22167 -0.733487 -0.20892 -2.67725e-13 7.4811e-13 6.5543e-14 -66.6136 42.1095 -14.773 23.5028 -18.1969 -48.0699 0.594785 -21.3803 3.1538 2.42041e-09 -4.50149e-10 6.62198e-09 4.04352e-09 -8.27587e-10 1.14849e-08 2.4204e-09 -4.50152e-10 6.62199e-09 -7.73091 5.47488 -0.417314 2.42041e-09 -4.50147e-10 6.62198e-09 -2.90554 0.965183 -0.102902 2.4204e-09 -4.50147e-10 6.62197e-09 -10.2786 0.731801 -0.0259123 2.42041e-09 -4.50147e-10 6.62196e-09 -2.22167 -0.733487 0.20892 -2.03217e-16 0.0 -3.88251e-19 6.65241 -32.9357 13.7317 -0.323423 40.1981 0.746825 2.74516 -6.06962 15.6198 2.03217e-16 0.0 3.88251e-19 13.2584 -54.3394 6.82103 0.449141 44.5713 -0.756458 0.0945441 11.1398 2.46392
